<mxfile host="app.diagrams.net" modified="2022-06-17T07:42:55.291Z" agent="5.0 (Windows NT 10.0; Win64; x64) AppleWebKit/537.36 (KHTML, like Gecko) Chrome/102.0.0.0 Safari/537.36" etag="31zCl8NsFcYPKCovaqAY" version="20.0.1" type="github">
  <diagram id="fCad66FG9yl2taEA04Tq" name="Page-1">
    <mxGraphModel dx="1038" dy="652" grid="1" gridSize="10" guides="1" tooltips="1" connect="1" arrows="1" fold="1" page="1" pageScale="1" pageWidth="850" pageHeight="1100" math="0" shadow="0">
      <root>
        <mxCell id="0" />
        <mxCell id="1" parent="0" />
        <mxCell id="NcXTBmnUrQYtc0E-OIgb-1" value="INTERNET" style="verticalLabelPosition=bottom;sketch=0;aspect=fixed;html=1;verticalAlign=top;strokeColor=none;align=center;outlineConnect=0;shape=mxgraph.citrix.cloud;labelBackgroundColor=default;" parent="1" vertex="1">
          <mxGeometry x="40" y="80" width="153.22" height="100" as="geometry" />
        </mxCell>
        <mxCell id="NcXTBmnUrQYtc0E-OIgb-2" value="NIC&lt;br&gt;&lt;font color=&quot;#0000ff&quot;&gt;INTERNET&lt;/font&gt;" style="image;html=1;image=img/lib/clip_art/computers/Network_128x128.png" parent="1" vertex="1">
          <mxGeometry x="90" y="270" width="70" height="75" as="geometry" />
        </mxCell>
        <mxCell id="NcXTBmnUrQYtc0E-OIgb-7" value="DC&lt;br&gt;WINDOWS&amp;nbsp;&lt;br&gt;SERVER 2019" style="whiteSpace=wrap;html=1;verticalAlign=top;labelBackgroundColor=default;shadow=1;fillColor=#E6E6E6;" parent="1" vertex="1">
          <mxGeometry x="160" y="242.5" width="113.22" height="127.5" as="geometry" />
        </mxCell>
        <mxCell id="NcXTBmnUrQYtc0E-OIgb-9" value="&lt;font color=&quot;#000000&quot;&gt;NIC&lt;/font&gt;&lt;br&gt;&lt;font color=&quot;#ff0000&quot;&gt;INTERNAL&lt;br&gt;&lt;/font&gt;" style="image;html=1;image=img/lib/clip_art/computers/Network_128x128.png;fontColor=#0000FF;" parent="1" vertex="1">
          <mxGeometry x="260" y="270" width="80" height="70" as="geometry" />
        </mxCell>
        <mxCell id="NcXTBmnUrQYtc0E-OIgb-13" value="" style="endArrow=classic;startArrow=classic;html=1;rounded=0;fontColor=#FF0000;exitX=0.38;exitY=0;exitDx=0;exitDy=0;exitPerimeter=0;" parent="1" source="NcXTBmnUrQYtc0E-OIgb-2" target="NcXTBmnUrQYtc0E-OIgb-1" edge="1">
          <mxGeometry width="50" height="50" relative="1" as="geometry">
            <mxPoint x="60" y="310" as="sourcePoint" />
            <mxPoint x="80" y="200" as="targetPoint" />
          </mxGeometry>
        </mxCell>
        <mxCell id="NcXTBmnUrQYtc0E-OIgb-17" value="&lt;font color=&quot;#000000&quot;&gt;VIRTUALBOX&amp;nbsp;&lt;br&gt;NETWORK&lt;br&gt;&lt;/font&gt;" style="shape=process;whiteSpace=wrap;html=1;backgroundOutline=1;fontColor=#FF0000;shadow=1;fillColor=#E6E6E6;labelBackgroundColor=default;" parent="1" vertex="1">
          <mxGeometry x="310" y="100" width="210" height="80" as="geometry" />
        </mxCell>
        <mxCell id="NcXTBmnUrQYtc0E-OIgb-18" value="(DHCP)&lt;br&gt;WILL GET ADDRESSING&amp;nbsp;&lt;br&gt;FROM DC" style="image;html=1;image=img/lib/clip_art/computers/Network_128x128.png;shadow=1;fontColor=#000000;fillColor=#E6E6E6;" parent="1" vertex="1">
          <mxGeometry x="510" y="270" width="80" height="80" as="geometry" />
        </mxCell>
        <mxCell id="NcXTBmnUrQYtc0E-OIgb-19" value="CLIENT1&lt;br&gt;WIN 10" style="whiteSpace=wrap;html=1;aspect=fixed;shadow=1;fontColor=#000000;fillColor=#E6E6E6;labelBackgroundColor=default;" parent="1" vertex="1">
          <mxGeometry x="580" y="237" width="120" height="120" as="geometry" />
        </mxCell>
        <mxCell id="NcXTBmnUrQYtc0E-OIgb-20" value="" style="endArrow=none;html=1;rounded=0;fontColor=#000000;entryX=0.404;entryY=0.995;entryDx=0;entryDy=0;entryPerimeter=0;" parent="1" source="NcXTBmnUrQYtc0E-OIgb-9" target="NcXTBmnUrQYtc0E-OIgb-17" edge="1">
          <mxGeometry width="50" height="50" relative="1" as="geometry">
            <mxPoint x="340" y="280" as="sourcePoint" />
            <mxPoint x="390" y="230" as="targetPoint" />
            <Array as="points">
              <mxPoint x="370" y="230" />
            </Array>
          </mxGeometry>
        </mxCell>
        <mxCell id="NcXTBmnUrQYtc0E-OIgb-21" value="" style="endArrow=none;html=1;rounded=0;fontColor=#000000;exitX=0;exitY=0;exitDx=0;exitDy=0;entryX=0.674;entryY=0.995;entryDx=0;entryDy=0;entryPerimeter=0;" parent="1" source="NcXTBmnUrQYtc0E-OIgb-18" target="NcXTBmnUrQYtc0E-OIgb-17" edge="1">
          <mxGeometry width="50" height="50" relative="1" as="geometry">
            <mxPoint x="460" y="260" as="sourcePoint" />
            <mxPoint x="510" y="210" as="targetPoint" />
            <Array as="points">
              <mxPoint x="480" y="260" />
              <mxPoint x="470" y="240" />
              <mxPoint x="452" y="210" />
            </Array>
          </mxGeometry>
        </mxCell>
        <mxCell id="NcXTBmnUrQYtc0E-OIgb-22" value="&lt;b&gt;DOMAIN AD / DC&lt;br&gt;FQDN: mydomain.com&lt;/b&gt;" style="text;html=1;strokeColor=none;fillColor=none;align=center;verticalAlign=middle;whiteSpace=wrap;rounded=0;shadow=1;labelBackgroundColor=none;fontColor=#000000;fontStyle=0;labelBorderColor=#FF0000;spacingLeft=-22;spacingRight=-22;spacing=2;" parent="1" vertex="1">
          <mxGeometry y="470" width="206.78" height="90" as="geometry" />
        </mxCell>
        <mxCell id="NcXTBmnUrQYtc0E-OIgb-23" value="&lt;h4 style=&quot;font-size: 19px; line-height: 0;&quot;&gt;RAS / NAT&lt;/h4&gt;&lt;hr&gt;Outside:&amp;nbsp; Internet&lt;br&gt;Inside:" style="text;html=1;strokeColor=none;fillColor=none;spacing=5;spacingTop=-20;whiteSpace=wrap;overflow=hidden;rounded=0;shadow=1;labelBackgroundColor=none;labelBorderColor=none;fontColor=#000000;" parent="1" vertex="1">
          <mxGeometry x="180" y="480" width="130" height="120" as="geometry" />
        </mxCell>
        <mxCell id="NcXTBmnUrQYtc0E-OIgb-24" value="&lt;h4 style=&quot;font-size: 19px; line-height: 0;&quot;&gt;DHCP (1 Scope)&lt;/h4&gt;&lt;hr&gt;Range: 172.16.0.100-200&lt;br&gt;Mask: 255.255.255.0&lt;br&gt;GW:&amp;nbsp; 172.168.0.1&lt;br&gt;DNS:&amp;nbsp; 172.16.0.1" style="text;html=1;strokeColor=none;fillColor=none;spacing=5;spacingTop=-20;whiteSpace=wrap;overflow=hidden;rounded=0;shadow=1;labelBackgroundColor=none;labelBorderColor=none;fontSize=15;fontColor=#000000;" parent="1" vertex="1">
          <mxGeometry x="320" y="490" width="190" height="140" as="geometry" />
        </mxCell>
        <mxCell id="NcXTBmnUrQYtc0E-OIgb-26" value="IP: 172.16.0.1&lt;br&gt;MASK:255.255.255.0&lt;br&gt;GATEWAY:&amp;nbsp; &amp;lt;empty&amp;gt;&lt;br&gt;DNS:&amp;nbsp; 127.0.0.1" style="text;html=1;align=left;verticalAlign=middle;resizable=0;points=[];autosize=1;strokeColor=none;fillColor=none;fontSize=9;fontColor=#FF0000;" parent="1" vertex="1">
          <mxGeometry x="273.22" y="380" width="100" height="50" as="geometry" />
        </mxCell>
        <mxCell id="NcXTBmnUrQYtc0E-OIgb-27" value="WILL GET ADDRESING FROM HOME ROUTER" style="text;html=1;strokeColor=none;fillColor=none;align=left;verticalAlign=middle;whiteSpace=wrap;rounded=0;shadow=1;labelBackgroundColor=none;labelBorderColor=none;fontSize=9;fontColor=#000000;" parent="1" vertex="1">
          <mxGeometry x="70" y="370" width="110" height="50" as="geometry" />
        </mxCell>
        <mxCell id="8AJaLY0FdeJvYk5FH-YP-1" value="" style="endArrow=none;html=1;rounded=0;entryX=0.263;entryY=-0.071;entryDx=0;entryDy=0;entryPerimeter=0;" edge="1" parent="1" target="NcXTBmnUrQYtc0E-OIgb-24">
          <mxGeometry width="50" height="50" relative="1" as="geometry">
            <mxPoint x="220" y="440" as="sourcePoint" />
            <mxPoint x="410" y="460" as="targetPoint" />
            <Array as="points">
              <mxPoint x="370" y="440" />
            </Array>
          </mxGeometry>
        </mxCell>
        <mxCell id="8AJaLY0FdeJvYk5FH-YP-2" value="" style="endArrow=none;html=1;rounded=0;" edge="1" parent="1">
          <mxGeometry width="50" height="50" relative="1" as="geometry">
            <mxPoint x="100" y="480" as="sourcePoint" />
            <mxPoint x="210" y="440" as="targetPoint" />
            <Array as="points">
              <mxPoint x="100" y="440" />
            </Array>
          </mxGeometry>
        </mxCell>
        <mxCell id="8AJaLY0FdeJvYk5FH-YP-3" value="" style="endArrow=none;html=1;rounded=0;entryX=0.5;entryY=1;entryDx=0;entryDy=0;exitX=0.25;exitY=0;exitDx=0;exitDy=0;" edge="1" parent="1" source="NcXTBmnUrQYtc0E-OIgb-23" target="NcXTBmnUrQYtc0E-OIgb-7">
          <mxGeometry width="50" height="50" relative="1" as="geometry">
            <mxPoint x="191.61" y="440" as="sourcePoint" />
            <mxPoint x="241.61" y="390" as="targetPoint" />
          </mxGeometry>
        </mxCell>
      </root>
    </mxGraphModel>
  </diagram>
</mxfile>
